HIERARCHY
ROOT Hips
{
	OFFSET 0.000000 0.000000 0.000000
	CHANNELS 6 Xposition Yposition Zposition Zrotation Yrotation Xrotation 
	JOINT LHipJoint
	{
		OFFSET 0.000000 0.000000 0.000000
		CHANNELS 3 Zrotation Yrotation Xrotation
		JOINT LeftUpLeg
		{
			OFFSET 1.363060 -1.794630 0.839290
			CHANNELS 3 Zrotation Yrotation Xrotation
			JOINT LeftLeg
			{
				OFFSET 2.448110 -6.726130 0.000000
				CHANNELS 3 Zrotation Yrotation Xrotation
				JOINT LeftFoot
				{
					OFFSET 2.562200 -7.039590 0.000000
					CHANNELS 3 Zrotation Yrotation Xrotation
					JOINT LeftToeBase
					{
						OFFSET 0.157640 -0.433110 2.322550
						CHANNELS 3 Zrotation Yrotation Xrotation
						End Site
						{
							OFFSET 0.000000 0.000000 0.000000
						}
					}
				}
			}
		}
	}
	JOINT RHipJoint
	{
		OFFSET 0.000000 0.000000 0.000000
		CHANNELS 3 Zrotation Yrotation Xrotation
		JOINT RightUpLeg
		{
			OFFSET -1.305520 -1.794630 0.839290
			CHANNELS 3 Zrotation Yrotation Xrotation
			JOINT RightLeg
			{
				OFFSET -2.542530 -6.985550 0.000000
				CHANNELS 3 Zrotation Yrotation Xrotation
				JOINT RightFoot
				{
					OFFSET -2.568260 -7.056230 0.000000
					CHANNELS 3 Zrotation Yrotation Xrotation
					JOINT RightToeBase
					{
						OFFSET -0.164730 -0.452590 2.363150
						CHANNELS 3 Zrotation Yrotation Xrotation
						End Site
						{
							OFFSET 0.000000 0.000000 0.000000
						}
					}
				}
			}
		}
	}
	JOINT LowerBack
	{
		OFFSET 0.000000 0.000000 0.000000
		CHANNELS 3 Zrotation Yrotation Xrotation
		JOINT Spine
		{
			OFFSET 0.028270 2.035590 -0.193380
			CHANNELS 3 Zrotation Yrotation Xrotation
			JOINT Spine1
			{
				OFFSET 0.056720 2.048850 -0.042750
				CHANNELS 3 Zrotation Yrotation Xrotation
				JOINT Neck
				{
					OFFSET 0.000000 0.000000 0.000000
					CHANNELS 3 Zrotation Yrotation Xrotation
					JOINT Neck1
					{
						OFFSET -0.054170 1.746240 0.172020
						CHANNELS 3 Zrotation Yrotation Xrotation
						JOINT Head
						{
							OFFSET 0.104070 1.761360 -0.123970
							CHANNELS 3 Zrotation Yrotation Xrotation
							End Site
							{
								OFFSET 0.000000 0.000000 0.000000
							}
						}
					}
				}
				JOINT LeftShoulder
				{
					OFFSET 0.000000 0.000000 0.000000
					CHANNELS 3 Zrotation Yrotation Xrotation
					JOINT LeftArm
					{
						OFFSET 3.362410 1.200890 -0.311210
						CHANNELS 3 Zrotation Yrotation Xrotation
						JOINT LeftForeArm
						{
							OFFSET 4.983000 -0.000000 -0.000000
							CHANNELS 3 Zrotation Yrotation Xrotation
							JOINT LeftHand
							{
								OFFSET 3.483560 -0.000000 -0.000000
								CHANNELS 3 Zrotation Yrotation Xrotation
								JOINT LeftFingerBase
								{
									OFFSET 0.000000 0.000000 0.000000
									CHANNELS 3 Zrotation Yrotation Xrotation
									JOINT LeftHandIndex1
									{
										OFFSET 0.715260 -0.000000 -0.000000
										CHANNELS 3 Zrotation Yrotation Xrotation
										End Site
										{
											OFFSET 0.000000 0.000000 0.000000
										}
									}
								}
								JOINT LThumb
								{
									OFFSET 0.000000 0.000000 0.000000
									CHANNELS 3 Zrotation Yrotation Xrotation
									End Site
									{
										OFFSET 0.000000 0.000000 0.000000
									}
								}
							}
						}
					}
				}
				JOINT RightShoulder
				{
					OFFSET 0.000000 0.000000 0.000000
					CHANNELS 3 Zrotation Yrotation Xrotation
					JOINT RightArm
					{
						OFFSET -3.136600 1.374050 -0.404650
						CHANNELS 3 Zrotation Yrotation Xrotation
						JOINT RightForeArm
						{
							OFFSET -5.241900 -0.000000 -0.000000
							CHANNELS 3 Zrotation Yrotation Xrotation
							JOINT RightHand
							{
								OFFSET -3.444170 -0.000000 -0.000000
								CHANNELS 3 Zrotation Yrotation Xrotation
								JOINT RightFingerBase
								{
									OFFSET 0.000000 0.000000 0.000000
									CHANNELS 3 Zrotation Yrotation Xrotation
									JOINT RightHandIndex1
									{
										OFFSET -0.622530 -0.000000 -0.000000
										CHANNELS 3 Zrotation Yrotation Xrotation
										End Site
										{
											OFFSET 0.000000 0.000000 0.000000
										}
									}
								}
								JOINT RThumb
								{
									OFFSET 0.000000 0.000000 0.000000
									CHANNELS 3 Zrotation Yrotation Xrotation
									End Site
									{
										OFFSET 0.000000 0.000000 0.000000
									}
								}
							}
						}
					}
				}
			}
		}
	}
}
MOTION
Frames: 10
Frame Time: 0.008333
-0.694448 16.801295 -0.577599 30.681878 80.055173 28.464993 -11.561640 4.974715 -1.070414 5.116038 20.117362 3.520288 0.236521 2.236969 38.014145 1.323955 -1.197579 24.706116 -1.314300 0.000000 -77.142300 8.422100 -0.963642 -1.007875 19.188278 -16.152145 -22.848015 2.059631 0.010896 19.017692 -6.202527 -21.901923 -26.698010 -173.317000 0.000000 -11.822000 -2.096052 -6.511533 -0.501495 -0.765545 -6.554540 -1.808042 -5.761315 -6.449565 4.230805 10.581470 -21.532642 -10.604005 -2.368574 -0.138904 -0.741183 0.000000 0.000000 0.000000 1.123612 18.720292 1.731843 -26.621076 2.833146 -3.449820 -2.516476 -45.291753 0.005388 -1.676869 -0.320055 0.006548 -0.135394 0.093433 0.000000 0.000000 0.000000 0.000000 0.000000 0.000000 0.000000 18.597690 -21.317306 -0.968333 80.304736 -22.260672 -17.716479 4.525103 13.920380 0.011147 4.037851 5.066965 0.175631 0.098154 -0.025936 -0.000000 0.000000 0.000000 0.000000 0.000000 0.000000 0.000000 
-0.512493 16.799145 -0.505007 29.254539 79.606631 26.987483 -11.655428 4.902277 -1.024952 5.263307 19.665162 2.437587 0.333123 2.306218 40.433259 1.472851 -0.961155 26.169247 -1.302500 0.000000 -72.330200 8.400132 -1.024816 -1.151895 19.199237 -16.431412 -22.542370 2.111342 -0.117096 20.242356 -6.066029 -21.205328 -27.239138 -173.242300 0.000001 -13.311300 -2.005562 -6.355670 -0.418408 -0.764912 -6.399226 -1.817807 -5.781695 -6.295576 4.171147 10.572286 -21.356316 -10.593498 -2.360643 -0.138595 -0.738442 0.000000 0.000000 0.000000 1.202476 18.684656 1.707495 -27.345417 3.340141 -3.056700 -2.569820 -45.095115 0.005447 -1.818289 -0.328568 0.007054 -0.137417 0.086718 0.000000 0.000000 0.000000 0.000000 0.000000 0.000000 0.000000 18.435123 -21.022939 -0.925365 80.147775 -21.508090 -17.440817 4.494089 14.013994 0.011360 3.829667 5.125723 0.168339 0.099286 -0.027287 -0.000000 0.000000 0.000000 0.000000 0.000000 0.000000 0.000000 
-0.334498 16.794773 -0.433791 27.661904 79.080888 25.388542 -11.741013 4.816531 -0.991001 5.310736 19.195685 1.212248 0.412407 2.385651 42.886891 1.607124 -0.323974 27.049173 -1.046800 -0.000001 -67.012500 8.375772 -1.084612 -1.280141 19.239057 -16.632011 -22.260170 2.166503 -0.236929 21.420601 -5.913818 -20.424771 -27.735751 -173.224400 0.000000 -14.501099 -1.896591 -6.174935 -0.334662 -0.762735 -6.218856 -1.830683 -5.808974 -6.116580 4.104036 10.567513 -21.147090 -10.585829 -2.352754 -0.138280 -0.736502 0.000000 0.000000 0.000000 1.270778 18.647638 1.682723 -28.151692 3.890797 -2.637968 -2.630567 -44.864545 0.005398 -1.961305 -0.316877 0.007261 -0.139930 0.079109 0.000000 0.000000 0.000000 0.000000 0.000000 0.000000 0.000000 18.255637 -20.676246 -0.875621 79.968749 -20.643082 -17.017143 4.458543 14.163881 0.011559 3.619548 5.185319 0.160647 0.100283 -0.028701 -0.000000 0.000000 0.000000 0.000000 0.000000 0.000000 0.000000 
-0.160431 16.788306 -0.363604 25.993552 78.485952 23.757225 -11.814571 4.718363 -0.968598 5.263005 18.708740 -0.141698 0.482909 2.477442 45.326426 1.726026 0.702108 27.339922 -0.553700 0.000000 -61.692000 8.352315 -1.140733 -1.388928 19.302918 -16.732711 -21.975177 2.220627 -0.344724 22.512553 -5.759306 -19.616267 -28.202656 -173.242000 0.000000 -15.471800 -1.775285 -5.975619 -0.253040 -0.759368 -6.019430 -1.846328 -5.842204 -5.918582 4.030353 10.563502 -20.903576 -10.577251 -2.346707 -0.138167 -0.734428 0.000000 0.000000 0.000000 1.321361 18.610541 1.657494 -29.022228 4.486522 -2.189461 -2.697556 -44.601991 0.005220 -2.099475 -0.282892 0.006965 -0.142897 0.070594 0.000000 0.000000 0.000000 0.000000 0.000000 0.000000 0.000000 18.064479 -20.279189 -0.822660 79.764995 -19.676721 -16.464650 4.419332 14.374342 0.011739 3.414563 5.241723 0.152957 0.101113 -0.030209 -0.000000 0.000000 0.000000 0.000000 0.000000 0.000000 0.000000 
0.009958 16.780081 -0.293998 24.337834 77.833657 22.179176 -11.873616 4.607658 -0.955496 5.125527 18.197305 -1.605474 0.551397 2.580258 47.703228 1.830899 2.062810 27.064292 0.129900 -0.000000 -56.718300 8.332112 -1.191630 -1.477088 19.384093 -16.724620 -21.664162 2.270249 -0.438032 23.488814 -5.614707 -18.832967 -28.654604 -173.273400 0.000001 -16.300900 -1.650401 -5.764451 -0.176625 -0.755522 -5.807322 -1.864362 -5.879091 -5.708008 3.951721 10.556048 -20.632556 -10.564068 -2.343403 -0.138384 -0.731264 0.000000 0.000000 0.000000 1.348877 18.571667 1.631040 -29.943628 5.128780 -1.709484 -2.769594 -44.307352 0.004890 -2.228808 -0.224894 0.006168 -0.146226 0.061194 0.000000 0.000000 0.000000 0.000000 0.000000 0.000000 0.000000 17.864666 -19.843372 -0.769927 79.529623 -18.614257 -15.782039 4.376692 14.641211 0.011908 3.211358 5.297412 0.145168 0.101822 -0.031832 -0.000000 0.000000 0.000000 0.000000 0.000000 0.000000 0.000000 
0.177016 16.770515 -0.224484 22.767014 77.138460 20.721739 -11.917081 4.483825 -0.948082 4.905026 17.650158 -3.156129 0.621532 2.690176 49.967978 1.923817 3.673310 26.266042 0.928400 0.000000 -52.297601 8.316466 -1.236042 -1.545875 19.473724 -16.609731 -21.307970 2.312918 -0.515499 24.329066 -5.489817 -18.119805 -29.103258 -173.299700 -0.000000 -17.055700 -1.532091 -5.547729 -0.107661 -0.752475 -5.588491 -1.884359 -5.917698 -5.490849 3.869584 10.541531 -20.338567 -10.541875 -2.344153 -0.139103 -0.725858 0.000000 0.000000 0.000000 1.351146 18.528557 1.602104 -30.908087 5.817102 -1.197553 -2.845698 -43.977772 0.004401 -2.346393 -0.142738 0.004672 -0.149805 0.050954 0.000000 0.000000 0.000000 0.000000 0.000000 0.000000 0.000000 17.661057 -19.378279 -0.720825 79.257966 -17.463950 -14.988794 4.331087 14.960162 0.012072 3.008375 5.354242 0.137180 0.102453 -0.033614 -0.000000 0.000000 0.000000 0.000000 0.000000 0.000000 0.000000 
0.341159 16.760184 -0.154625 21.332362 76.415233 19.429684 -11.944866 4.346745 -0.941068 4.609186 17.052184 -4.766462 0.693625 2.801493 52.070044 2.007096 5.433158 25.011402 1.754800 0.000000 -48.578800 8.305901 -1.273087 -1.598056 19.562180 -16.398002 -20.891590 2.346980 -0.576711 25.022269 -5.391434 -17.510593 -29.556024 -173.306300 -0.000001 -17.788300 -1.429976 -5.330725 -0.048863 -0.751756 -5.367981 -1.906242 -5.956871 -5.272168 3.784677 10.517408 -20.019557 -10.505391 -2.350933 -0.140567 -0.716823 0.000000 0.000000 0.000000 1.329823 18.478834 1.569437 -31.911908 6.548255 -0.655653 -2.925223 -43.606306 0.003751 -2.450515 -0.037448 0.002572 -0.153523 0.039949 0.000000 0.000000 0.000000 0.000000 0.000000 0.000000 0.000000 17.460868 -18.885974 -0.678596 78.948199 -16.241398 -14.134643 4.283616 15.330015 0.012237 2.811315 5.411249 0.129294 0.103008 -0.035620 -0.000000 0.000000 0.000000 0.000000 0.000000 0.000000 0.000000 
0.502870 16.749638 -0.084047 20.057235 75.677767 18.319559 -11.957638 4.197344 -0.929815 4.250756 16.394040 -6.411295 0.765013 2.908973 53.969017 2.080462 7.228452 23.353247 2.518900 0.000000 -45.397200 8.300267 -1.302351 -1.636870 19.641447 -16.103535 -20.405911 2.371595 -0.622035 25.565933 -5.322981 -17.025601 -30.014743 -173.283700 0.000000 -18.530400 -1.351618 -5.117220 -0.002279 -0.754113 -5.149412 -1.929738 -5.993486 -5.055691 3.699033 10.481169 -19.692290 -10.452483 -2.362836 -0.142725 -0.703526 0.000000 0.000000 0.000000 1.285487 18.415640 1.530918 -32.957075 7.325327 -0.092581 -3.007151 -43.190655 0.002947 -2.542995 0.089604 -0.000332 -0.157198 0.028309 0.000000 0.000000 0.000000 0.000000 0.000000 0.000000 0.000000 17.263148 -18.388445 -0.644392 78.591638 -14.942736 -13.200128 4.234043 15.732180 0.012423 2.605217 5.479629 0.121009 0.103627 -0.037854 -0.000000 0.000000 0.000000 0.000000 0.000000 0.000000 0.000000 
0.662694 16.739472 -0.012428 18.948748 74.936844 17.391832 -11.955995 4.037099 -0.908253 3.840999 15.662747 -8.062420 0.831058 3.006563 55.621754 2.144550 8.959576 21.380895 3.150200 -0.000000 -42.836900 8.299729 -1.323739 -1.666451 19.703551 -15.745892 -19.848094 2.386751 -0.652790 25.965907 -5.283587 -16.668059 -30.473609 -173.230000 -0.000000 -19.288200 -1.302196 -4.909492 0.029754 -0.760779 -4.935085 -1.955138 -6.027907 -4.843722 3.612389 10.433255 -19.342579 -10.378395 -2.382159 -0.145830 -0.684728 0.000000 0.000000 0.000000 1.225841 18.342536 1.485955 -34.048961 8.134161 0.485046 -3.091683 -42.715826 0.002011 -2.624841 0.233497 -0.003737 -0.160740 0.016211 0.000000 0.000000 0.000000 0.000000 0.000000 0.000000 0.000000 17.076611 -17.873066 -0.620349 78.193288 -13.595003 -12.275494 4.184427 16.173324 0.012623 2.408993 5.553011 0.113026 0.104220 -0.040385 -0.000000 0.000000 0.000000 0.000000 0.000000 0.000000 0.000000 
0.821104 16.730176 0.060418 17.993111 74.200331 16.627425 -11.940802 3.868356 -0.872112 3.395809 14.854621 -9.698251 0.886115 3.090229 57.002310 2.196755 10.530947 19.157069 3.593599 0.000000 -40.630900 8.304020 -1.337896 -1.689791 19.744708 -15.342027 -19.220736 2.393040 -0.670766 26.233282 -5.269498 -16.428839 -30.920606 -173.149000 -0.000000 -20.044300 -1.283200 -4.708233 0.045262 -0.771845 -4.725827 -1.982654 -6.058674 -4.637184 3.525442 10.373974 -18.973403 -10.282113 -2.408217 -0.149827 -0.660123 0.000000 0.000000 0.000000 1.155896 18.259312 1.433742 -35.195461 8.968556 1.064029 -3.178495 -42.174329 0.000969 -2.699314 0.389649 -0.007548 -0.164014 0.003875 0.000000 0.000000 0.000000 0.000000 0.000000 0.000000 0.000000 16.900612 -17.344761 -0.606294 77.750756 -12.207391 -11.376387 4.135521 16.645201 0.012847 2.222669 5.635997 0.105545 0.104819 -0.043211 -0.000000 0.000000 0.000000 0.000000 0.000000 0.000000 0.000000 
